<svg version="1.1" id="Layer_1" xmlns="http://www.w3.org/2000/svg" xmlns:xlink="http://www.w3.org/1999/xlink" x="0px" y="0px"
	 width="100%" viewBox="0 0 502 725" xml:space="preserve">
<path fill="#040B07" opacity="1.000000" stroke="none" 
	d="
M390.000000,14.080096 
	C419.999176,14.080097 449.498383,14.077013 478.997559,14.082561 
	C485.295868,14.083745 486.947876,15.714082 486.947998,21.948698 
	C486.951355,178.111069 486.986084,334.273438 486.919952,490.435822 
	C486.906799,521.459473 482.847748,551.853882 471.232483,580.891479 
	C453.650940,624.844421 424.226105,658.621033 383.289795,682.233215 
	C337.998657,708.357422 288.704468,716.585876 237.110626,714.154968 
	C200.029663,712.407837 164.050537,705.651367 130.279938,689.754822 
	C78.781944,665.513794 45.297680,625.816956 30.106911,570.907959 
	C24.031145,548.946350 21.803928,526.444824 21.657694,503.707153 
	C21.631273,499.598969 23.687099,497.594574 27.706036,497.552277 
	C32.038773,497.506653 36.372356,497.541870 40.705570,497.541870 
	C81.204453,497.541809 121.703339,497.539001 162.202225,497.544739 
	C168.383438,497.545624 169.504181,498.588257 169.626541,504.717163 
	C169.956924,521.265076 171.566971,537.561401 177.383499,553.271973 
	C186.544403,578.015869 204.880219,591.308411 230.134720,595.893799 
	C244.468552,598.496277 258.921509,599.257263 273.349060,596.307678 
	C301.196106,590.614502 319.091064,573.216187 329.968567,547.779602 
	C338.117279,528.724060 339.881256,508.515503 339.887482,488.101929 
	C339.934570,333.106171 339.913147,178.110443 339.913452,23.114698 
	C339.913483,14.571237 340.408875,14.080212 349.004028,14.080130 
	C362.502686,14.080000 376.001343,14.080096 390.000000,14.080096 
M268.249908,707.889893 
	C271.070526,707.651672 273.888367,707.372437 276.712189,707.181580 
	C313.130493,704.720276 347.528931,695.240723 379.291199,677.070007 
	C419.462097,654.088806 448.320068,621.114014 465.409576,578.030945 
	C476.755829,549.426636 480.374298,519.499573 480.367065,488.949219 
	C480.330566,334.802704 480.350708,180.656204 480.350952,26.509699 
	C480.350983,24.737364 480.350983,22.965029 480.350983,21.092617 
	C435.344757,21.092617 390.980804,21.092617 346.223511,21.092617 
	C346.223511,23.618486 346.223511,25.756691 346.223511,27.894896 
	C346.223480,181.208176 346.197784,334.521454 346.252716,487.834747 
	C346.260437,509.310791 344.348633,530.432739 335.889465,550.446106 
	C327.082642,571.282043 313.259399,587.602844 292.317383,597.103088 
	C274.753693,605.070801 256.238129,605.697998 237.459473,603.525024 
	C224.101120,601.979126 211.198074,598.639709 199.707916,591.475342 
	C180.981064,579.798828 171.336594,561.848450 167.101135,540.902039 
	C164.676605,528.911499 163.724152,516.623352 162.089340,504.321716 
	C117.796837,504.321716 73.076439,504.321716 27.413383,504.321716 
	C28.634348,517.449341 29.386442,530.236816 31.086290,542.897034 
	C35.508106,575.830017 46.891747,605.988708 67.524979,632.424988 
	C92.791794,664.798035 126.241173,684.484375 165.036667,695.998535 
	C198.421555,705.907043 232.627899,708.926575 268.249908,707.889893 
z"/>
<path fill="#05FE6D" opacity="1.000000" stroke="none" 
	d="
M267.772614,707.896973 
	C232.627899,708.926575 198.421555,705.907043 165.036667,695.998535 
	C126.241173,684.484375 92.791794,664.798035 67.524979,632.424988 
	C46.891747,605.988708 35.508106,575.830017 31.086290,542.897034 
	C29.386442,530.236816 28.634348,517.449341 27.413383,504.321716 
	C73.076439,504.321716 117.796837,504.321716 162.089340,504.321716 
	C163.724152,516.623352 164.676605,528.911499 167.101135,540.902039 
	C171.336594,561.848450 180.981064,579.798828 199.707916,591.475342 
	C211.198074,598.639709 224.101120,601.979126 237.459473,603.525024 
	C256.238129,605.697998 274.753693,605.070801 292.317383,597.103088 
	C313.259399,587.602844 327.082642,571.282043 335.889465,550.446106 
	C344.348633,530.432739 346.260437,509.310791 346.252716,487.834747 
	C346.197784,334.521454 346.223480,181.208176 346.223511,27.894896 
	C346.223511,25.756691 346.223511,23.618486 346.223511,21.092617 
	C390.980804,21.092617 435.344757,21.092617 480.350983,21.092617 
	C480.350983,22.965029 480.350983,24.737364 480.350952,26.509699 
	C480.350708,180.656204 480.330566,334.802704 480.367065,488.949219 
	C480.374298,519.499573 476.755829,549.426636 465.409576,578.030945 
	C448.320068,621.114014 419.462097,654.088806 379.291199,677.070007 
	C347.528931,695.240723 313.130493,704.720276 276.712189,707.181580 
	C273.888367,707.372437 271.070526,707.651672 267.772614,707.896973 
z"/>
</svg>